<svg width="29" height="29" viewBox="0 0 29 29" fill="none" xmlns="http://www.w3.org/2000/svg">
<path fill-rule="evenodd" clip-rule="evenodd" d="M15.2631 17.0929C15.0979 17.2581 14.8738 17.3509 14.6401 17.3509C14.4065 17.3509 14.1824 17.2581 14.0172 17.0929L9.03275 12.1085C8.87225 11.9423 8.78344 11.7197 8.78545 11.4887C8.78745 11.2577 8.88012 11.0367 9.04349 10.8733C9.20685 10.71 9.42785 10.6173 9.65887 10.6153C9.88989 10.6133 10.1125 10.7021 10.2786 10.8626L14.6401 15.2241L19.0016 10.8626C19.1678 10.7021 19.3904 10.6133 19.6214 10.6153C19.8524 10.6173 20.0734 10.71 20.2368 10.8733C20.4002 11.0367 20.4928 11.2577 20.4948 11.4887C20.4968 11.7197 20.408 11.9423 20.2475 12.1085L15.2631 17.0929Z" fill="white"/>
</svg>
