<svg width="134" height="38" viewBox="0 0 134 38" fill="none" xmlns="http://www.w3.org/2000/svg">
<mask id="mask0_148_11" style="mask-type:luminance" maskUnits="userSpaceOnUse" x="0" y="1" width="134" height="37">
<path d="M0 1.82007H134V37.1257H0V1.82007Z" fill="white"/>
</mask>
<g mask="url(#mask0_148_11)">
<path fill-rule="evenodd" clip-rule="evenodd" d="M134 19.5171C134 29.2379 126.116 37.1186 116.39 37.1186H17.6097C7.88428 37.1186 0 29.2379 0 19.5171C0 9.79624 7.88428 1.9165 17.6097 1.9165H116.39C126.116 1.9165 134 9.79624 134 19.5171Z" fill="#020C56"/>
</g>
<mask id="mask1_148_11" style="mask-type:luminance" maskUnits="userSpaceOnUse" x="0" y="0" width="134" height="36">
<path d="M0 0H134V35.3202H0V0Z" fill="white"/>
</mask>
<g mask="url(#mask1_148_11)">
<path fill-rule="evenodd" clip-rule="evenodd" d="M134 17.6015C134 27.3223 126.116 35.2021 116.39 35.2021H17.6097C7.88428 35.2021 0 27.3223 0 17.6015C0 7.88064 7.88428 0 17.6097 0H116.39C126.116 0 134 7.88064 134 17.6015Z" fill="white"/>
</g>
<path fill-rule="evenodd" clip-rule="evenodd" d="M132.264 17.6015C132.264 26.6063 124.961 33.9062 115.95 33.9062H18.0495C9.03927 33.9062 1.73568 26.6063 1.73568 17.6015C1.73568 8.59585 9.03927 1.2959 18.0495 1.2959H115.95C124.961 1.2959 132.264 8.59676 132.264 17.6015Z" fill="#2A4591"/>
<path fill-rule="evenodd" clip-rule="evenodd" d="M22.0561 18.4203V20.1851H24.1217C24.5443 20.1851 24.866 20.1133 25.0859 19.9679C25.3058 19.8225 25.4158 19.6007 25.4158 19.3027C25.4158 19.0046 25.3058 18.7829 25.0859 18.6375C24.866 18.4921 24.5443 18.4203 24.1217 18.4203H22.0561ZM65.6478 15.1252C65.3161 15.1252 65.0062 15.1833 64.7208 15.2987C64.4346 15.4151 64.1856 15.5832 63.9739 15.8031C63.763 16.0221 63.5967 16.2838 63.4768 16.5864C63.3559 16.8881 63.2959 17.2307 63.2959 17.6115C63.2959 17.985 63.3559 18.3249 63.4768 18.6311C63.5967 18.9383 63.763 19.2009 63.9739 19.4208C64.1856 19.6407 64.4346 19.8079 64.7208 19.9242C65.0062 20.0406 65.3161 20.0987 65.6478 20.0987C65.9795 20.0987 66.2884 20.0406 66.5747 19.9242C66.86 19.8079 67.109 19.6407 67.3208 19.4208C67.5325 19.2009 67.6979 18.9383 67.8188 18.6311C67.9387 18.3249 67.9987 17.985 67.9987 17.6115C67.9987 17.2307 67.9387 16.8881 67.8188 16.5864C67.6979 16.2838 67.5325 16.0221 67.3208 15.8031C67.109 15.5832 66.86 15.4151 66.5747 15.2987C66.2884 15.1833 65.9795 15.1252 65.6478 15.1252ZM22.0561 15.0379V16.7164H23.7482C24.1626 16.7164 24.4743 16.6464 24.6815 16.5055C24.8887 16.3638 24.9923 16.153 24.9923 15.8712C24.9923 15.5895 24.8887 15.3796 24.6815 15.2433C24.4743 15.1061 24.1626 15.0379 23.7482 15.0379H22.0561ZM71.083 13.2604H73.6211L75.3732 18.8147L77.217 13.2604H79.4807L81.24 18.8674L83.0639 13.2604H85.4157L82.5913 21.9635H79.9532L78.2857 16.6628L76.5445 21.9635H73.9074L71.083 13.2604ZM51.2596 13.2604H53.2879L57.1319 17.8977V13.2604H59.5455V21.9635H57.5172L53.6732 17.3252V21.9635H51.2596V13.2604ZM37.8429 13.2604H40.4428L42.5038 16.7136L44.573 13.2604H46.9621L43.628 18.8456V21.9635H41.1643V18.8074L37.8429 13.2604ZM29.108 13.2604H31.5707V18.0095C31.5707 18.7556 31.7179 19.2899 32.0124 19.6135C32.3068 19.937 32.7112 20.0987 33.2255 20.0987C33.7399 20.0987 34.1425 19.937 34.4324 19.6135C34.7232 19.2899 34.8676 18.7556 34.8676 18.0095V13.2604H37.294V18.084C37.294 19.3772 36.9332 20.3759 36.2117 21.0802C35.4901 21.7854 34.486 22.137 33.201 22.137C31.9151 22.137 30.9119 21.7854 30.1903 21.0802C29.4688 20.3759 29.108 19.3772 29.108 18.084V13.2604ZM19.618 13.2604H24.0717C25.2168 13.2604 26.071 13.4694 26.6344 13.8884C27.1987 14.3064 27.4804 14.8562 27.4804 15.535C27.4804 15.983 27.3623 16.3747 27.126 16.71C26.9488 16.9617 26.718 17.1744 26.4336 17.347L26.2891 17.4225L26.4608 17.4815C26.917 17.6678 27.2714 17.9368 27.5241 18.2894C27.7767 18.642 27.9039 19.0709 27.9039 19.5762C27.9039 20.3305 27.5986 20.9166 26.9888 21.3355C26.38 21.7545 25.4903 21.9635 24.3207 21.9635H19.618V13.2604ZM65.6478 13.0859C66.352 13.0859 66.9973 13.1977 67.5825 13.4222C68.1668 13.6457 68.6748 13.9629 69.1065 14.3727C69.5372 14.7835 69.8753 15.2624 70.1197 15.8094C70.3651 16.3565 70.4868 16.9572 70.4868 17.6115C70.4868 18.2667 70.3651 18.8692 70.1197 19.4208C69.8753 19.9724 69.5372 20.4504 69.1065 20.8566C68.6748 21.2628 68.1668 21.5782 67.5825 21.8017C66.9973 22.0253 66.352 22.137 65.6478 22.137C64.9508 22.137 64.3083 22.0253 63.7194 21.8017C63.1305 21.5782 62.618 21.261 62.1827 20.8503C61.7474 20.4404 61.4094 19.9615 61.1686 19.4144C60.9277 18.8674 60.8078 18.2667 60.8078 17.6115C60.8078 16.9572 60.9277 16.3565 61.1686 15.8094C61.4094 15.2624 61.7474 14.7835 62.1827 14.3727C62.618 13.9629 63.1305 13.6457 63.7194 13.4222C64.3083 13.1977 64.9508 13.0859 65.6478 13.0859Z" fill="white"/>
<path fill-rule="evenodd" clip-rule="evenodd" d="M118.613 22.3277C118.536 22.3277 118.46 22.3359 118.385 22.3513C118.31 22.3668 118.237 22.3904 118.166 22.4213C118.095 22.4522 118.028 22.4895 117.964 22.534C117.901 22.5794 117.842 22.6294 117.787 22.6867C117.733 22.743 117.684 22.8048 117.642 22.872C117.6 22.9384 117.564 23.0093 117.534 23.0838C117.504 23.1574 117.483 23.2337 117.468 23.3128C117.453 23.3909 117.445 23.4709 117.445 23.5509C117.445 23.6318 117.453 23.7108 117.468 23.7899C117.483 23.8689 117.504 23.9453 117.534 24.0198C117.564 24.0943 117.6 24.1643 117.642 24.2306C117.684 24.2979 117.733 24.3597 117.787 24.416C117.842 24.4733 117.901 24.5241 117.964 24.5687C118.028 24.6132 118.095 24.6505 118.166 24.6814C118.237 24.7123 118.31 24.735 118.385 24.7513C118.46 24.7668 118.536 24.775 118.613 24.775C118.689 24.775 118.766 24.7668 118.841 24.7513C118.916 24.735 118.989 24.7123 119.06 24.6814C119.131 24.6505 119.198 24.6132 119.262 24.5687C119.326 24.5241 119.385 24.4733 119.438 24.416C119.493 24.3597 119.541 24.2979 119.584 24.2306C119.626 24.1643 119.663 24.0943 119.692 24.0198C119.721 23.9453 119.744 23.8689 119.758 23.7899C119.774 23.7108 119.781 23.6318 119.781 23.5509C119.781 23.4709 119.774 23.3909 119.758 23.3128C119.744 23.2337 119.721 23.1574 119.692 23.0838C119.663 23.0093 119.626 22.9384 119.584 22.872C119.541 22.8048 119.493 22.743 119.438 22.6867C119.385 22.6294 119.326 22.5794 119.262 22.534C119.198 22.4895 119.131 22.4522 119.06 22.4213C118.989 22.3904 118.916 22.3668 118.841 22.3513C118.766 22.3359 118.689 22.3277 118.613 22.3277ZM114.403 22.3277C114.327 22.3277 114.25 22.3359 114.175 22.3513C114.1 22.3668 114.027 22.3904 113.957 22.4213C113.886 22.4522 113.818 22.4895 113.754 22.534C113.69 22.5794 113.632 22.6294 113.577 22.6867C113.523 22.743 113.475 22.8048 113.432 22.872C113.39 22.9384 113.353 23.0093 113.324 23.0838C113.295 23.1574 113.272 23.2337 113.258 23.3128C113.242 23.3909 113.235 23.4709 113.235 23.5509C113.235 23.6318 113.242 23.7108 113.258 23.7899C113.272 23.8689 113.295 23.9453 113.324 24.0198C113.353 24.0943 113.39 24.1643 113.432 24.2306C113.475 24.2979 113.523 24.3597 113.577 24.416C113.632 24.4733 113.69 24.5241 113.754 24.5687C113.818 24.6132 113.886 24.6505 113.957 24.6814C114.027 24.7123 114.1 24.735 114.175 24.7513C114.25 24.7668 114.327 24.775 114.403 24.775C114.48 24.775 114.556 24.7668 114.631 24.7513C114.706 24.735 114.779 24.7123 114.85 24.6814C114.92 24.6505 114.988 24.6132 115.052 24.5687C115.115 24.5241 115.174 24.4733 115.229 24.416C115.283 24.3597 115.331 24.2979 115.374 24.2306C115.416 24.1643 115.453 24.0943 115.482 24.0198C115.512 23.9453 115.533 23.8689 115.548 23.7899C115.563 23.7108 115.571 23.6318 115.571 23.5509C115.571 23.4709 115.563 23.3909 115.548 23.3128C115.533 23.2337 115.512 23.1574 115.482 23.0838C115.453 23.0093 115.416 22.9384 115.374 22.872C115.331 22.8048 115.283 22.743 115.229 22.6867C115.174 22.6294 115.115 22.5794 115.052 22.534C114.988 22.4895 114.92 22.4522 114.85 22.4213C114.779 22.3904 114.706 22.3668 114.631 22.3513C114.556 22.3359 114.48 22.3277 114.403 22.3277ZM116.111 15.8792H117.086C117.254 15.8792 117.391 16.0156 117.391 16.1837V18.0993H118.141C118.381 18.0993 118.523 18.1829 118.531 18.3056C118.535 18.361 118.511 18.4256 118.457 18.4937L116.914 20.4239C116.739 20.6411 116.457 20.6411 116.283 20.4239L115.511 19.4588L114.739 18.4937C114.566 18.2756 114.706 18.0993 115.054 18.0993H115.806V16.1837C115.806 16.0156 115.942 15.8792 116.111 15.8792ZM109.388 12.237L107.024 12.2397C106.679 12.2324 106.371 12.5578 106.384 12.9167C106.371 13.2739 106.677 13.6083 107.024 13.5956L109.006 13.5974C109.662 15.1913 110.302 16.7944 110.966 18.3856L111.032 18.4365L112.042 20.8337C112.276 21.4608 112.957 21.9133 113.656 21.8961C115.557 21.8942 117.457 21.8933 119.359 21.8961C120.049 21.9179 120.732 21.4844 120.978 20.8683C121.724 19.0871 122.476 17.3087 123.223 15.5285C123.343 15.2622 123.35 14.9269 123.149 14.6952C122.966 14.4716 122.653 14.4007 122.37 14.408C118.598 14.4098 114.826 14.4089 111.054 14.408H110.762L110.067 12.7032C110.024 12.5669 109.955 12.3987 109.854 12.317C109.727 12.2452 109.541 12.2288 109.388 12.237ZM115.073 5.26782C121.887 5.26782 127.412 10.7894 127.412 17.6013C127.412 24.4124 121.887 29.9348 115.073 29.9348C108.257 29.9348 102.733 24.4124 102.733 17.6013C102.733 10.7894 108.257 5.26782 115.073 5.26782Z" fill="white"/>
</svg>
