<svg width="26" height="26" viewBox="0 0 26 26" fill="none" xmlns="http://www.w3.org/2000/svg">
<path fill-rule="evenodd" clip-rule="evenodd" d="M17.4283 16.0198L23.0324 21.624C23.2294 21.8211 23.34 22.0884 23.3399 22.367C23.3398 22.6457 23.229 22.9129 23.0319 23.1099C22.8348 23.3069 22.5675 23.4175 22.2888 23.4174C22.0102 23.4173 21.743 23.3065 21.546 23.1094L15.9418 17.5052C14.2665 18.8028 12.1598 19.4134 10.0503 19.2129C7.94074 19.0123 5.98684 18.0157 4.58606 16.4256C3.18528 14.8356 2.44284 12.7717 2.50978 10.6537C2.57672 8.53571 3.44801 6.52277 4.9464 5.02438C6.44479 3.52599 8.45772 2.6547 10.5757 2.58777C12.6937 2.52083 14.7576 3.26327 16.3477 4.66405C17.9377 6.06483 18.9343 8.01873 19.1349 10.1283C19.3354 12.2378 18.7248 14.3445 17.4272 16.0198H17.4283ZM10.8397 17.1667C12.4973 17.1667 14.087 16.5082 15.2591 15.3361C16.4312 14.164 17.0897 12.5743 17.0897 10.9167C17.0897 9.25907 16.4312 7.66935 15.2591 6.49725C14.087 5.32515 12.4973 4.66667 10.8397 4.66667C9.18212 4.66667 7.59241 5.32515 6.42031 6.49725C5.2482 7.66935 4.58972 9.25907 4.58972 10.9167C4.58972 12.5743 5.2482 14.164 6.42031 15.3361C7.59241 16.5082 9.18212 17.1667 10.8397 17.1667Z" fill="#181818"/>
</svg>
