<svg width="26" height="25" viewBox="0 0 26 25" fill="none" xmlns="http://www.w3.org/2000/svg">
<path d="M4.32935 3.125C4.12215 3.125 3.92343 3.20731 3.77692 3.35382C3.63041 3.50034 3.5481 3.69905 3.5481 3.90625C3.5481 4.11345 3.63041 4.31216 3.77692 4.45868C3.92343 4.60519 4.12215 4.6875 4.32935 4.6875H4.71372C4.88336 4.68779 5.0483 4.7433 5.18361 4.84562C5.31891 4.94795 5.41724 5.09154 5.46372 5.25469L7.94184 13.9266C8.08201 14.4159 8.37769 14.8464 8.78419 15.1528C9.19069 15.4592 9.68591 15.625 10.195 15.625H17.334C17.8025 15.6251 18.2603 15.4847 18.6483 15.2221C19.0363 14.9595 19.3366 14.5866 19.5106 14.1516L21.8137 8.39219C21.9084 8.1552 21.9436 7.89862 21.9162 7.64489C21.8888 7.39116 21.7997 7.148 21.6567 6.93665C21.5136 6.72531 21.321 6.55223 21.0956 6.43253C20.8702 6.31283 20.6189 6.25016 20.3637 6.25H7.3731L6.96528 4.825C6.82548 4.33558 6.53015 3.90498 6.12394 3.59828C5.71773 3.29157 5.22271 3.12544 4.71372 3.125H4.32935ZM10.5793 21.875C10.8871 21.875 11.1919 21.8144 11.4763 21.6966C11.7606 21.5788 12.019 21.4062 12.2366 21.1885C12.4543 20.9709 12.6269 20.7125 12.7447 20.4282C12.8625 20.1438 12.9231 19.839 12.9231 19.5312C12.9231 19.2235 12.8625 18.9187 12.7447 18.6343C12.6269 18.35 12.4543 18.0916 12.2366 17.874C12.019 17.6563 11.7606 17.4837 11.4763 17.3659C11.1919 17.2481 10.8871 17.1875 10.5793 17.1875C9.95774 17.1875 9.3616 17.4344 8.92206 17.874C8.48253 18.3135 8.2356 18.9096 8.2356 19.5312C8.2356 20.1529 8.48253 20.749 8.92206 21.1885C9.3616 21.6281 9.95774 21.875 10.5793 21.875ZM16.8293 21.875C17.1371 21.875 17.4419 21.8144 17.7263 21.6966C18.0106 21.5788 18.269 21.4062 18.4866 21.1885C18.7043 20.9709 18.8769 20.7125 18.9947 20.4282C19.1125 20.1438 19.1731 19.839 19.1731 19.5312C19.1731 19.2235 19.1125 18.9187 18.9947 18.6343C18.8769 18.35 18.7043 18.0916 18.4866 17.874C18.269 17.6563 18.0106 17.4837 17.7263 17.3659C17.4419 17.2481 17.1371 17.1875 16.8293 17.1875C16.2077 17.1875 15.6116 17.4344 15.1721 17.874C14.7325 18.3135 14.4856 18.9096 14.4856 19.5312C14.4856 20.1529 14.7325 20.749 15.1721 21.1885C15.6116 21.6281 16.2077 21.875 16.8293 21.875Z" fill="#181818"/>
</svg>
