<svg width="106" height="99" viewBox="0 0 106 99" fill="none" xmlns="http://www.w3.org/2000/svg">
<mask id="mask0_267_429" style="mask-type:luminance" maskUnits="userSpaceOnUse" x="0" y="0" width="66" height="99">
<path d="M0 0.0688477H65.3358V98.9896H0V0.0688477Z" fill="white"/>
</mask>
<g mask="url(#mask0_267_429)">
<path d="M25.316 5.02487L59.5328 39.2355C60.2198 39.9225 60.8332 40.6771 61.373 41.4868C61.919 42.2965 62.3729 43.1492 62.7471 44.0509C63.1213 44.9465 63.3973 45.8728 63.5875 46.8297C63.7777 47.7866 63.8758 48.7497 63.8758 49.7251C63.8758 50.7004 63.7777 51.6635 63.5875 52.6204C63.3973 53.5712 63.1213 54.5036 62.7471 55.3992C62.3729 56.301 61.919 57.1536 61.373 57.9633C60.8332 58.7731 60.2198 59.5214 59.5328 60.2146L25.316 94.4252C15.9736 103.768 -0.00613208 97.1488 1.76535e-06 83.9296V15.5021C-0.00613208 2.30127 15.9736 -4.3237 25.316 5.02487Z" fill="#72FFFF"/>
</g>
<mask id="mask1_267_429" style="mask-type:luminance" maskUnits="userSpaceOnUse" x="0" y="0" width="66" height="76">
<path d="M0 0.0688477H65.3358V75.4341H0V0.0688477Z" fill="white"/>
</mask>
<g mask="url(#mask1_267_429)">
<path d="M25.3162 5.02553C16.029 -4.26784 0.227179 2.22832 0.00634766 15.282C0.00634766 15.282 53.8465 66.2207 45.2832 74.5203L59.5637 60.2459C60.2507 59.5528 60.8641 58.8044 61.4039 57.9947C61.9499 57.1849 62.4038 56.3323 62.778 55.4305C63.1461 54.5349 63.4282 53.6025 63.6184 52.6517C63.8085 51.6948 63.9067 50.7317 63.9067 49.7564C63.9067 48.781 63.8085 47.818 63.6184 46.861C63.4282 45.9041 63.1461 44.9778 62.778 44.0822C62.4038 43.1805 61.9499 42.3278 61.4039 41.5181C60.8641 40.7084 60.2507 39.9539 59.5637 39.2668L25.3162 5.02553Z" fill="#00D7FF"/>
</g>
<mask id="mask2_267_429" style="mask-type:luminance" maskUnits="userSpaceOnUse" x="85" y="0" width="21" height="21">
<path d="M85.751 0.0688477H106V20.4713H85.751V0.0688477Z" fill="white"/>
</mask>
<g mask="url(#mask2_267_429)">
<path d="M106.442 9.87129C106.442 10.5093 106.38 11.1411 106.258 11.7668C106.129 12.3925 105.945 12.9936 105.705 13.5825C105.46 14.1714 105.16 14.7296 104.81 15.2572C104.454 15.7908 104.049 16.2816 103.601 16.7294C103.154 17.1772 102.663 17.582 102.135 17.9317C101.602 18.2875 101.043 18.588 100.455 18.8273C99.8718 19.0726 99.2645 19.2567 98.6388 19.3794C98.0132 19.5082 97.3813 19.5695 96.7495 19.5695C96.1115 19.5695 95.4797 19.5082 94.854 19.3794C94.2345 19.2567 93.6272 19.0726 93.0383 18.8273C92.4494 18.588 91.8912 18.2875 91.3636 17.9317C90.83 17.582 90.3454 17.1772 89.8914 16.7294C89.4436 16.2816 89.0388 15.7908 88.6891 15.2572C88.3333 14.7296 88.0327 14.1714 87.7935 13.5825C87.5481 12.9936 87.3641 12.3925 87.2414 11.7668C87.1187 11.1411 87.0513 10.5093 87.0513 9.87129C87.0513 9.23947 87.1187 8.60764 87.2414 7.98195C87.3641 7.35626 87.5481 6.7551 87.7935 6.16621C88.0327 5.57733 88.3333 5.01911 88.6891 4.49157C89.0388 3.95789 89.4436 3.46715 89.8914 3.01935C90.3454 2.57155 90.83 2.16669 91.3636 1.81704C91.8912 1.46125 92.4494 1.16068 93.0383 0.915308C93.6272 0.676072 94.2345 0.492045 94.854 0.369361C95.4797 0.240542 96.1115 0.179199 96.7495 0.179199C97.3813 0.179199 98.0132 0.240542 98.6388 0.369361C99.2645 0.492045 99.8718 0.676072 100.455 0.915308C101.043 1.16068 101.602 1.46125 102.135 1.81704C102.663 2.16669 103.154 2.57155 103.601 3.01935C104.049 3.46715 104.454 3.95789 104.81 4.49157C105.16 5.01911 105.46 5.57733 105.705 6.16621C105.945 6.7551 106.129 7.35626 106.258 7.98195C106.38 8.60764 106.442 9.23947 106.442 9.87129Z" fill="#590696"/>
<path d="M106.442 9.87129C106.442 10.5093 106.38 11.1411 106.258 11.7668C106.129 12.3925 105.945 12.9936 105.705 13.5825C105.46 14.1714 105.16 14.7296 104.81 15.2572C104.454 15.7908 104.049 16.2816 103.601 16.7294C103.154 17.1772 102.663 17.582 102.135 17.9317C101.602 18.2875 101.043 18.588 100.455 18.8273C99.8718 19.0726 99.2645 19.2567 98.6388 19.3794C98.0132 19.5082 97.3813 19.5695 96.7495 19.5695C96.1115 19.5695 95.4797 19.5082 94.854 19.3794C94.2345 19.2567 93.6272 19.0726 93.0383 18.8273C92.4494 18.588 91.8912 18.2875 91.3636 17.9317C90.83 17.582 90.3454 17.1772 89.8914 16.7294C89.4436 16.2816 89.0388 15.7908 88.6891 15.2572C88.3333 14.7296 88.0327 14.1714 87.7935 13.5825C87.5481 12.9936 87.3641 12.3925 87.2414 11.7668C87.1187 11.1411 87.0513 10.5093 87.0513 9.87129C87.0513 9.23947 87.1187 8.60764 87.2414 7.98195C87.3641 7.35626 87.5481 6.7551 87.7935 6.16621C88.0327 5.57733 88.3333 5.01911 88.6891 4.49157C89.0388 3.95789 89.4436 3.46715 89.8914 3.01935C90.3454 2.57155 90.83 2.16669 91.3636 1.81704C91.8912 1.46125 92.4494 1.16068 93.0383 0.915308C93.6272 0.676072 94.2345 0.492045 94.854 0.369361C95.4797 0.240542 96.1115 0.179199 96.7495 0.179199C97.3813 0.179199 98.0132 0.240542 98.6388 0.369361C99.2645 0.492045 99.8718 0.676072 100.455 0.915308C101.043 1.16068 101.602 1.46125 102.135 1.81704C102.663 2.16669 103.154 2.57155 103.601 3.01935C104.049 3.46715 104.454 3.95789 104.81 4.49157C105.16 5.01911 105.46 5.57733 105.705 6.16621C105.945 6.7551 106.129 7.35626 106.258 7.98195C106.38 8.60764 106.442 9.23947 106.442 9.87129Z" fill="#590696"/>
</g>
<mask id="mask3_267_429" style="mask-type:luminance" maskUnits="userSpaceOnUse" x="40" y="0" width="66" height="99">
<path d="M40.21 0.0688477H106V98.9896H40.21V0.0688477Z" fill="white"/>
</mask>
<g mask="url(#mask3_267_429)">
<path d="M102.092 39.3217L67.8812 5.10491C58.6922 -4.08418 34.2104 6.57712 42.5898 14.9504L67.1942 39.5609C67.8812 40.2541 68.5008 41.0025 69.0406 41.8122C69.5804 42.6219 70.0405 43.4746 70.4085 44.3702C70.7827 45.2719 71.0649 46.1982 71.2551 47.1551C71.4452 48.112 71.5434 49.0751 71.5434 50.0505C71.5434 51.0197 71.4452 51.9889 71.2551 52.9397C71.0649 53.8966 70.7827 54.8229 70.4085 55.7246C70.0405 56.6202 69.5804 57.479 69.0406 58.2887C68.5008 59.0985 67.8812 59.8468 67.1942 60.5339L42.6082 85.126C35.1121 92.6159 58.7842 103.664 67.8812 94.5728L102.092 60.356C102.785 59.6689 103.405 58.9206 103.951 58.1047C104.497 57.295 104.957 56.4362 105.331 55.5345C105.705 54.6327 105.987 53.7003 106.177 52.7434C106.374 51.7865 106.466 50.8172 106.466 49.8419C106.466 48.8604 106.374 47.8912 106.177 46.9343C105.987 45.9773 105.705 45.0449 105.331 44.1432C104.957 43.2415 104.497 42.3827 103.951 41.5729C103.405 40.7571 102.785 40.0087 102.092 39.3217Z" fill="#0096FF"/>
</g>
<mask id="mask4_267_429" style="mask-type:luminance" maskUnits="userSpaceOnUse" x="40" y="0" width="66" height="76">
<path d="M40.21 0.0688477H106V75.4341H40.21V0.0688477Z" fill="white"/>
</mask>
<g mask="url(#mask4_267_429)">
<path d="M102.092 39.3217L67.8812 5.10491C58.6922 -4.08418 34.2104 6.57712 42.5898 14.9504L67.1942 39.5609C68.3842 40.751 69.3412 42.1005 70.065 43.6095C70.795 45.1247 71.2489 46.7134 71.4391 48.3819C79.9166 58.3378 86.9649 67.9992 88.4309 74.0231L102.116 60.3376C102.803 59.6444 103.423 58.896 103.963 58.0802C104.509 57.2705 104.963 56.4117 105.337 55.5099C105.711 54.6082 105.993 53.6819 106.183 52.725C106.374 51.768 106.466 50.7988 106.466 49.8235C106.466 48.8481 106.367 47.8789 106.177 46.922C105.987 45.9651 105.699 45.0388 105.325 44.1371C104.95 43.2353 104.49 42.3765 103.944 41.5668C103.405 40.7571 102.785 40.0087 102.092 39.3217Z" fill="#5800FF"/>
</g>
</svg>
