<svg width="373" height="84" viewBox="0 0 373 84" fill="none" xmlns="http://www.w3.org/2000/svg">
<mask id="mask0_262_470" style="mask-type:luminance" maskUnits="userSpaceOnUse" x="0" y="0" width="56" height="84">
<path d="M0 0H55.474V83.9896H0V0Z" fill="white"/>
</mask>
<g mask="url(#mask0_262_470)">
<path d="M21.4948 4.20812L50.5469 33.255C51.1302 33.8383 51.651 34.479 52.1094 35.1664C52.5729 35.854 52.9583 36.5779 53.276 37.3435C53.5938 38.1039 53.8281 38.8904 53.9896 39.7029C54.151 40.5154 54.2344 41.3331 54.2344 42.1612C54.2344 42.9894 54.151 43.8071 53.9896 44.6196C53.8281 45.4269 53.5938 46.2185 53.276 46.9789C52.9583 47.7446 52.5729 48.4685 52.1094 49.156C51.651 49.8435 51.1302 50.4789 50.5469 51.0675L21.4948 80.1144C13.5625 88.0467 -0.0052065 82.4269 1.49889e-06 71.2029V13.1039C-0.0052065 1.89562 13.5625 -3.72938 21.4948 4.20812Z" fill="#72FFFF"/>
</g>
<mask id="mask1_262_470" style="mask-type:luminance" maskUnits="userSpaceOnUse" x="0" y="0" width="56" height="64">
<path d="M0 0H55.474V63.9896H0V0Z" fill="white"/>
</mask>
<g mask="url(#mask1_262_470)">
<path d="M21.495 4.20848C13.6095 -3.68215 0.19287 1.83348 0.00537109 12.9168C0.00537109 12.9168 45.7189 56.1668 38.4481 63.2137L50.5731 51.0939C51.1564 50.5054 51.6772 49.8699 52.1356 49.1824C52.5991 48.4949 52.9845 47.771 53.3022 47.0054C53.6147 46.2449 53.8543 45.4533 54.0158 44.646C54.1772 43.8335 54.2606 43.0158 54.2606 42.1876C54.2606 41.3595 54.1772 40.5418 54.0158 39.7293C53.8543 38.9168 53.6147 38.1304 53.3022 37.3699C52.9845 36.6043 52.5991 35.8804 52.1356 35.1929C51.6772 34.5054 51.1564 33.8647 50.5731 33.2814L21.495 4.20848Z" fill="#00D7FF"/>
</g>
<mask id="mask2_262_470" style="mask-type:luminance" maskUnits="userSpaceOnUse" x="72" y="0" width="19" height="18">
<path d="M72.8076 0H90.0003V17.3229H72.8076V0Z" fill="white"/>
</mask>
<g mask="url(#mask2_262_470)">
<path d="M90.3752 8.32292C90.3752 8.86458 90.3231 9.40104 90.2189 9.93229C90.1095 10.4635 89.9533 10.974 89.7502 11.474C89.5418 11.974 89.2866 12.4479 88.9897 12.8958C88.6877 13.349 88.3439 13.7656 87.9637 14.1458C87.5835 14.526 87.1668 14.8698 86.7189 15.1667C86.2658 15.4688 85.7918 15.724 85.2918 15.9271C84.797 16.1354 84.2814 16.2917 83.7502 16.3958C83.2189 16.5052 82.6825 16.5573 82.146 16.5573C81.6043 16.5573 81.0679 16.5052 80.5366 16.3958C80.0106 16.2917 79.495 16.1354 78.995 15.9271C78.495 15.724 78.021 15.4688 77.5731 15.1667C77.12 14.8698 76.7085 14.526 76.3231 14.1458C75.9429 13.7656 75.5991 13.349 75.3022 12.8958C75.0002 12.4479 74.745 11.974 74.5418 11.474C74.3335 10.974 74.1772 10.4635 74.0731 9.93229C73.9689 9.40104 73.9116 8.86458 73.9116 8.32292C73.9116 7.78646 73.9689 7.25 74.0731 6.71875C74.1772 6.1875 74.3335 5.67708 74.5418 5.17708C74.745 4.67708 75.0002 4.20312 75.3022 3.75521C75.5991 3.30208 75.9429 2.88542 76.3231 2.50521C76.7085 2.125 77.12 1.78125 77.5731 1.48438C78.021 1.18229 78.495 0.927083 78.995 0.71875C79.495 0.515625 80.0106 0.359375 80.5366 0.255208C81.0679 0.145834 81.6043 0.09375 82.146 0.09375C82.6825 0.09375 83.2189 0.145834 83.7502 0.255208C84.2814 0.359375 84.797 0.515625 85.2918 0.71875C85.7918 0.927083 86.2658 1.18229 86.7189 1.48438C87.1668 1.78125 87.5835 2.125 87.9637 2.50521C88.3439 2.88542 88.6877 3.30208 88.9897 3.75521C89.2866 4.20312 89.5418 4.67708 89.7502 5.17708C89.9533 5.67708 90.1095 6.1875 90.2189 6.71875C90.3231 7.25 90.3752 7.78646 90.3752 8.32292Z" fill="#590696"/>
<path d="M90.3752 8.32292C90.3752 8.86458 90.3231 9.40104 90.2189 9.93229C90.1095 10.4635 89.9533 10.974 89.7502 11.474C89.5418 11.974 89.2866 12.4479 88.9897 12.8958C88.6877 13.349 88.3439 13.7656 87.9637 14.1458C87.5835 14.526 87.1668 14.8698 86.7189 15.1667C86.2658 15.4688 85.7918 15.724 85.2918 15.9271C84.797 16.1354 84.2814 16.2917 83.7502 16.3958C83.2189 16.5052 82.6825 16.5573 82.146 16.5573C81.6043 16.5573 81.0679 16.5052 80.5366 16.3958C80.0106 16.2917 79.495 16.1354 78.995 15.9271C78.495 15.724 78.021 15.4688 77.5731 15.1667C77.12 14.8698 76.7085 14.526 76.3231 14.1458C75.9429 13.7656 75.5991 13.349 75.3022 12.8958C75.0002 12.4479 74.745 11.974 74.5418 11.474C74.3335 10.974 74.1772 10.4635 74.0731 9.93229C73.9689 9.40104 73.9116 8.86458 73.9116 8.32292C73.9116 7.78646 73.9689 7.25 74.0731 6.71875C74.1772 6.1875 74.3335 5.67708 74.5418 5.17708C74.745 4.67708 75.0002 4.20312 75.3022 3.75521C75.5991 3.30208 75.9429 2.88542 76.3231 2.50521C76.7085 2.125 77.12 1.78125 77.5731 1.48438C78.021 1.18229 78.495 0.927083 78.995 0.71875C79.495 0.515625 80.0106 0.359375 80.5366 0.255208C81.0679 0.145834 81.6043 0.09375 82.146 0.09375C82.6825 0.09375 83.2189 0.145834 83.7502 0.255208C84.2814 0.359375 84.797 0.515625 85.2918 0.71875C85.7918 0.927083 86.2658 1.18229 86.7189 1.48438C87.1668 1.78125 87.5835 2.125 87.9637 2.50521C88.3439 2.88542 88.6877 3.30208 88.9897 3.75521C89.2866 4.20312 89.5418 4.67708 89.7502 5.17708C89.9533 5.67708 90.1095 6.1875 90.2189 6.71875C90.3231 7.25 90.3752 7.78646 90.3752 8.32292Z" fill="#590696"/>
</g>
<mask id="mask3_262_470" style="mask-type:luminance" maskUnits="userSpaceOnUse" x="34" y="0" width="56" height="84">
<path d="M34.1406 0H90V83.9896H34.1406V0Z" fill="white"/>
</mask>
<g mask="url(#mask3_262_470)">
<path d="M86.6821 33.328L57.6352 4.27596C49.8331 -3.52613 29.0467 5.52596 36.1613 12.6353L57.0519 33.5312C57.6352 34.1197 58.1613 34.7551 58.6196 35.4426C59.0779 36.1301 59.4686 36.8541 59.7811 37.6145C60.0988 38.3801 60.3384 39.1666 60.4998 39.9791C60.6613 40.7916 60.7446 41.6093 60.7446 42.4374C60.7446 43.2603 60.6613 44.0832 60.4998 44.8905C60.3384 45.703 60.0988 46.4895 59.7811 47.2551C59.4686 48.0155 59.0779 48.7447 58.6196 49.4322C58.1613 50.1197 57.6352 50.7551 57.0519 51.3385L36.1769 72.2187C29.8123 78.578 49.9113 87.9582 57.6352 80.2395L86.6821 51.1874C87.2706 50.6041 87.7967 49.9687 88.2602 49.276C88.7238 48.5885 89.1144 47.8593 89.4321 47.0937C89.7498 46.328 89.9894 45.5364 90.1509 44.7239C90.3175 43.9114 90.3956 43.0885 90.3956 42.2603C90.3956 41.427 90.3175 40.6041 90.1509 39.7916C89.9894 38.9791 89.7498 38.1874 89.4321 37.4218C89.1144 36.6562 88.7238 35.927 88.2602 35.2395C87.7967 34.5468 87.2706 33.9114 86.6821 33.328Z" fill="#0096FF"/>
</g>
<mask id="mask4_262_470" style="mask-type:luminance" maskUnits="userSpaceOnUse" x="34" y="0" width="56" height="64">
<path d="M34.1406 0H90V63.9896H34.1406V0Z" fill="white"/>
</mask>
<g mask="url(#mask4_262_470)">
<path d="M86.6821 33.328L57.6352 4.27596C49.8331 -3.52613 29.0467 5.52596 36.1613 12.6353L57.0519 33.5312C58.0623 34.5416 58.8748 35.6874 59.4894 36.9687C60.1092 38.2551 60.4946 39.6041 60.6561 41.0207C67.854 49.4739 73.8384 57.677 75.0831 62.7916L86.7029 51.1718C87.2863 50.5832 87.8123 49.9478 88.2706 49.2551C88.7342 48.5676 89.1196 47.8385 89.4373 47.0728C89.755 46.3072 89.9946 45.5207 90.1561 44.7082C90.3175 43.8957 90.3956 43.0728 90.3956 42.2447C90.3956 41.4166 90.3123 40.5937 90.1509 39.7812C89.9894 38.9687 89.7446 38.1822 89.4269 37.4166C89.1092 36.651 88.7186 35.9218 88.255 35.2343C87.7967 34.5468 87.2706 33.9114 86.6821 33.328Z" fill="#5800FF"/>
</g>
<path d="M130.079 54.3981V48.9137H114.985V20.9658H108.865V54.3981H130.079Z" fill="#181818"/>
<path d="M144.653 55.1589C148.757 55.1589 152.101 53.2943 153.752 50.1432V54.3984H159.403V29.1276H153.752V33.4036C152.127 30.2578 148.757 28.3672 144.627 28.3672C137.867 28.3672 132.757 34.388 132.757 41.763C132.757 49.1849 137.82 55.1589 144.653 55.1589ZM146.08 49.6536C142.075 49.6536 138.653 46.6797 138.653 41.763C138.653 37.0182 141.997 33.8724 146.08 33.8724C150.21 33.8724 153.502 37.362 153.502 41.763C153.502 46.237 150.236 49.6536 146.08 49.6536Z" fill="#181818"/>
<path d="M172.33 63.0283V53.2419L172.21 50.3148C173.882 53.2419 177.101 55.1585 180.788 55.1585C187.845 55.1585 193.033 49.1846 193.033 41.7627C193.033 34.3877 187.892 28.3877 180.715 28.3877C177.075 28.3877 173.856 30.3304 172.038 33.3773V29.1273H166.382V63.0283H172.33ZM179.705 49.6794C175.674 49.6794 172.257 46.3825 172.257 41.7627C172.257 37.3356 175.58 33.8721 179.684 33.8721C183.788 33.8721 187.132 37.0179 187.132 41.7627C187.132 46.6533 183.715 49.6794 179.705 49.6794Z" fill="#181818"/>
<path d="M213.751 54.3984V49.4557H209.845C207.949 49.4557 206.183 48.5964 206.183 45.0547V34.2422H213.751V29.1276H206.183V21.6797L200.23 21.7266V29.1276H194.996V34.2422H200.23V44.7839C200.23 53.1224 204.803 54.3984 208.615 54.3984H213.751Z" fill="#181818"/>
<path d="M230.047 55.1589C237.844 55.1589 243.422 49.2109 243.422 41.763C243.422 34.362 237.844 28.3672 230.073 28.3672C222.328 28.3672 216.776 34.388 216.776 41.763C216.776 49.1849 222.354 55.1589 230.047 55.1589ZM230.099 49.6276C225.844 49.6276 222.672 46.3359 222.672 41.763C222.672 37.2161 225.844 33.8724 230.099 33.8724C234.349 33.8724 237.521 37.2161 237.521 41.763C237.521 46.3359 234.349 49.6276 230.099 49.6276Z" fill="#181818"/>
<path d="M254.554 63.0283V53.2419L254.434 50.3148C256.106 53.2419 259.325 55.1585 263.012 55.1585C270.069 55.1585 275.257 49.1846 275.257 41.7627C275.257 34.3877 270.116 28.3877 262.939 28.3877C259.299 28.3877 256.08 30.3304 254.262 33.3773V29.1273H248.606V63.0283H254.554ZM261.929 49.6794C257.898 49.6794 254.481 46.3825 254.481 41.7627C254.481 37.3356 257.804 33.8721 261.908 33.8721C266.012 33.8721 269.356 37.0179 269.356 41.7627C269.356 46.6533 265.939 49.6794 261.929 49.6794Z" fill="#181818"/>
<path d="M287.053 54.3981V30.7262L296.959 44.4398H298.605L308.61 30.7731V54.3981H314.735V20.9658H309.397L297.798 36.5492L286.266 20.9658H280.933V54.3981H287.053Z" fill="#181818"/>
<path d="M332.282 55.1589C336.386 55.1589 339.729 53.2943 341.381 50.1432V54.3984H347.032V29.1276H341.381V33.4036C339.756 30.2578 336.386 28.3672 332.256 28.3672C325.495 28.3672 320.386 34.388 320.386 41.763C320.386 49.1849 325.448 55.1589 332.282 55.1589ZM333.709 49.6536C329.703 49.6536 326.282 46.6797 326.282 41.763C326.282 37.0182 329.625 33.8724 333.709 33.8724C337.839 33.8724 341.131 37.362 341.131 41.763C341.131 46.237 337.865 49.6536 333.709 49.6536Z" fill="#181818"/>
<path d="M359.958 54.3981V19.7627H354.01V54.3981H359.958Z" fill="#181818"/>
<path d="M372.863 54.3981V19.7627H366.915V54.3981H372.863Z" fill="#181818"/>
</svg>
