<svg width="186" height="42" viewBox="0 0 186 42" fill="none" xmlns="http://www.w3.org/2000/svg">
<path d="M47.8844 26.9357C47.5285 26.9357 47.2249 26.8116 46.9734 26.5632C46.7196 26.3101 46.5938 26.0045 46.5938 25.6463V13.4592C46.5938 13.1989 46.6816 12.9768 46.8595 12.7906C47.0351 12.6067 47.2533 12.5136 47.5143 12.5136C47.7729 12.5136 47.9935 12.6067 48.1785 12.7906C48.3612 12.9768 48.4537 13.1989 48.4537 13.4592V25.0733H55.115C55.3736 25.0733 55.5942 25.1664 55.7792 25.3502C55.9619 25.5365 56.0544 25.7562 56.0544 26.0093C56.0544 26.2719 55.9619 26.4916 55.7792 26.6683C55.5942 26.8474 55.3736 26.9357 55.115 26.9357H47.8844Z" fill="#181818"/>
<path d="M58.292 27.0408C58.0192 27.0408 57.7986 26.9501 57.6278 26.7734C57.4569 26.5967 57.3715 26.377 57.3715 26.1143C57.3715 26.0069 57.4048 25.8708 57.4759 25.7036L62.6759 13.3541C62.7827 13.1058 62.9345 12.9052 63.1314 12.7524C63.3259 12.5948 63.5679 12.5136 63.8526 12.5136H64.0613C64.346 12.5136 64.5856 12.5948 64.7825 12.7524C64.977 12.9052 65.1336 13.1058 65.2475 13.3541L70.438 25.7036C70.5068 25.8708 70.5423 26.0069 70.5423 26.1143C70.5423 26.377 70.4569 26.5967 70.2861 26.7734C70.1153 26.9501 69.8923 27.0408 69.6219 27.0408C69.4321 27.0408 69.2566 26.9883 69.1 26.888C68.9482 26.7877 68.8296 26.6468 68.7489 26.4677L67.4205 23.2681H60.4934L59.165 26.4677C59.0891 26.6468 58.9705 26.7877 58.8139 26.888C58.6549 26.9883 58.4818 27.0408 58.292 27.0408ZM61.2051 21.5585H66.7088L63.9569 14.8918L61.2051 21.5585Z" fill="#181818"/>
<path d="M74.4502 27.0409C74.1892 27.0409 73.971 26.9502 73.7954 26.7735C73.6175 26.5968 73.5297 26.3771 73.5297 26.1145V13.5644C73.5297 13.3041 73.6175 13.0821 73.7954 12.8958C73.971 12.712 74.1892 12.6188 74.4502 12.6188H79.0998C80.3903 12.6188 81.4436 12.8385 82.2597 13.2779C83.0757 13.7124 83.6569 14.2712 84.0057 14.9588C84.3591 15.6417 84.537 16.3796 84.537 17.1747C84.537 17.965 84.3591 18.7029 84.0057 19.3905C83.6569 20.0734 83.0757 20.6322 82.2597 21.0715C81.4436 21.5061 80.3903 21.721 79.0998 21.721H75.3896V26.1145C75.3896 26.3771 75.2971 26.5968 75.1144 26.7735C74.9294 26.9502 74.7088 27.0409 74.4502 27.0409ZM78.91 19.9636C80.3002 19.9636 81.2776 19.6962 81.8422 19.1613C82.4044 18.6265 82.6867 17.965 82.6867 17.1747C82.6867 16.3796 82.4044 15.7134 81.8422 15.1785C81.2776 14.6437 80.3002 14.3762 78.91 14.3762H75.3896V19.9636H78.91Z" fill="#181818"/>
<path d="M91.4446 27.0409C91.1837 27.0409 90.9655 26.9502 90.7899 26.7735C90.612 26.5968 90.5242 26.3771 90.5242 26.1145V14.3571H86.368C86.1213 14.3571 85.9149 14.2783 85.7512 14.1183C85.5923 13.9536 85.514 13.7459 85.514 13.4975C85.514 13.2492 85.5923 13.0439 85.7512 12.8767C85.9149 12.7048 86.1213 12.6188 86.368 12.6188H96.5213C96.768 12.6188 96.972 12.7048 97.1381 12.8767C97.3089 13.0439 97.3943 13.2492 97.3943 13.4975C97.3943 13.7459 97.3089 13.9536 97.1381 14.1183C96.972 14.2783 96.768 14.3571 96.5213 14.3571H92.3841V26.1145C92.3841 26.3771 92.2915 26.5968 92.1089 26.7735C91.9238 26.9502 91.7032 27.0409 91.4446 27.0409Z" fill="#181818"/>
<path d="M105.931 27.1364C104.508 27.1364 103.258 26.826 102.183 26.2004C101.106 25.57 100.276 24.7009 99.6875 23.5929C99.1039 22.485 98.8003 21.2123 98.7766 19.7725C98.8003 18.3398 99.1039 17.0696 99.6875 15.9616C100.276 14.8537 101.106 13.9846 102.183 13.3542C103.258 12.7238 104.508 12.4086 105.931 12.4086C107.359 12.4086 108.607 12.7238 109.67 13.3542C110.738 13.9846 111.568 14.8585 112.156 15.9712C112.749 17.0863 113.06 18.3542 113.086 19.7725C113.06 21.2004 112.749 22.4707 112.156 23.5834C111.568 24.6985 110.738 25.57 109.67 26.2004C108.607 26.826 107.359 27.1364 105.931 27.1364ZM105.931 25.3981C107.018 25.3981 107.962 25.1545 108.759 24.6627C109.561 24.166 110.175 23.495 110.6 22.6474C111.022 21.8021 111.236 20.8422 111.236 19.7725C111.236 18.7099 111.022 17.7548 110.6 16.9072C110.175 16.0548 109.561 15.3838 108.759 14.8919C107.962 14.4024 107.018 14.1565 105.931 14.1565C104.831 14.1565 103.882 14.4024 103.085 14.8919C102.292 15.3838 101.685 16.0548 101.263 16.9072C100.845 17.7548 100.636 18.7099 100.636 19.7725C100.636 20.8422 100.845 21.8021 101.263 22.6474C101.685 23.495 102.292 24.166 103.085 24.6627C103.882 25.1545 104.831 25.3981 105.931 25.3981Z" fill="#181818"/>
<path d="M117.096 27.0409C116.835 27.0409 116.616 26.9502 116.441 26.7735C116.263 26.5968 116.175 26.3771 116.175 26.1145V13.5644C116.175 13.3041 116.263 13.0821 116.441 12.8958C116.616 12.712 116.835 12.6188 117.096 12.6188H121.745C123.036 12.6188 124.089 12.8385 124.905 13.2779C125.721 13.7124 126.302 14.2712 126.651 14.9588C127.004 15.6417 127.182 16.3796 127.182 17.1747C127.182 17.965 127.004 18.7029 126.651 19.3905C126.302 20.0734 125.721 20.6322 124.905 21.0715C124.089 21.5061 123.036 21.721 121.745 21.721H118.035V26.1145C118.035 26.3771 117.942 26.5968 117.76 26.7735C117.575 26.9502 117.354 27.0409 117.096 27.0409ZM121.555 19.9636C122.946 19.9636 123.923 19.6962 124.488 19.1613C125.05 18.6265 125.332 17.965 125.332 17.1747C125.332 16.3796 125.05 15.7134 124.488 15.1785C123.923 14.6437 122.946 14.3762 121.555 14.3762H118.035V19.9636H121.555Z" fill="#181818"/>
<path d="M130.788 27.0408C130.527 27.0408 130.309 26.9501 130.133 26.7734C129.955 26.5967 129.867 26.377 129.867 26.1143V13.8699C129.867 13.5021 129.995 13.1822 130.256 12.9148C130.515 12.6473 130.828 12.5136 131.196 12.5136H131.87C132.14 12.5136 132.387 12.5972 132.61 12.7619C132.837 12.9291 133.003 13.132 133.113 13.3732L137.734 24.9873L142.364 13.3732C142.471 13.132 142.635 12.9291 142.858 12.7619C143.086 12.5972 143.335 12.5136 143.607 12.5136H144.281C144.647 12.5136 144.96 12.6473 145.221 12.9148C145.479 13.1822 145.61 13.5021 145.61 13.8699V26.1143C145.61 26.377 145.52 26.5967 145.344 26.7734C145.166 26.9501 144.948 27.0408 144.689 27.0408C144.428 27.0408 144.208 26.9501 144.025 26.7734C143.84 26.5967 143.75 26.377 143.75 26.1143V14.462L139.043 26.1812C138.934 26.4367 138.761 26.6444 138.521 26.802C138.287 26.9596 138.023 27.0408 137.734 27.0408C137.449 27.0408 137.186 26.9596 136.946 26.802C136.711 26.6444 136.541 26.4367 136.434 26.1812L131.727 14.462V26.1143C131.727 26.377 131.635 26.5967 131.452 26.7734C131.267 26.9501 131.046 27.0408 130.788 27.0408Z" fill="#181818"/>
<path d="M149.512 27.0408C149.239 27.0408 149.018 26.9501 148.848 26.7734C148.677 26.5967 148.591 26.377 148.591 26.1143C148.591 26.0069 148.625 25.8708 148.696 25.7036L153.896 13.3541C154.003 13.1058 154.154 12.9052 154.351 12.7524C154.546 12.5948 154.788 12.5136 155.072 12.5136H155.281C155.566 12.5136 155.805 12.5948 156.002 12.7524C156.197 12.9052 156.353 13.1058 156.467 13.3541L161.658 25.7036C161.727 25.8708 161.762 26.0069 161.762 26.1143C161.762 26.377 161.677 26.5967 161.506 26.7734C161.335 26.9501 161.112 27.0408 160.842 27.0408C160.652 27.0408 160.476 26.9883 160.32 26.888C160.168 26.7877 160.049 26.6468 159.969 26.4677L158.64 23.2681H151.713L150.385 26.4677C150.309 26.6468 150.19 26.7877 150.034 26.888C149.875 26.9883 149.702 27.0408 149.512 27.0408ZM152.425 21.5585H157.929L155.177 14.8918L152.425 21.5585Z" fill="#181818"/>
<path d="M166.04 26.9357C165.684 26.9357 165.381 26.8116 165.129 26.5632C164.875 26.3101 164.75 26.0045 164.75 25.6463V13.4592C164.75 13.1989 164.837 12.9768 165.015 12.7906C165.191 12.6067 165.409 12.5136 165.67 12.5136C165.929 12.5136 166.149 12.6067 166.334 12.7906C166.517 12.9768 166.609 13.1989 166.609 13.4592V25.0733H173.271C173.529 25.0733 173.75 25.1664 173.935 25.3502C174.118 25.5365 174.21 25.7562 174.21 26.0093C174.21 26.2719 174.118 26.4916 173.935 26.6683C173.75 26.8474 173.529 26.9357 173.271 26.9357H166.04Z" fill="#181818"/>
<path d="M177.776 26.9357C177.421 26.9357 177.117 26.8116 176.865 26.5632C176.612 26.3101 176.486 26.0045 176.486 25.6463V13.4592C176.486 13.1989 176.574 12.9768 176.752 12.7906C176.927 12.6067 177.145 12.5136 177.406 12.5136C177.665 12.5136 177.885 12.6067 178.071 12.7906C178.253 12.9768 178.346 13.1989 178.346 13.4592V25.0733H185.007C185.266 25.0733 185.486 25.1664 185.671 25.3502C185.854 25.5365 185.946 25.7562 185.946 26.0093C185.946 26.2719 185.854 26.4916 185.671 26.6683C185.486 26.8474 185.266 26.9357 185.007 26.9357H177.776Z" fill="#181818"/>
<mask id="mask0_88_1570" style="mask-type:luminance" maskUnits="userSpaceOnUse" x="0" y="0" width="41" height="42">
<path d="M0.824677 0H40.4509V41.7191H0.824677V0Z" fill="white"/>
</mask>
<g mask="url(#mask0_88_1570)">
<mask id="mask1_88_1570" style="mask-type:luminance" maskUnits="userSpaceOnUse" x="0" y="0" width="41" height="42">
<path d="M23.5889 19.4388H5.90132C5.21574 19.4388 4.71756 18.7822 4.9026 18.1184L9.75862 0.764078C9.88435 0.315178 10.2924 0.00476837 10.7573 0.00476837H28.4426C29.1305 0.00476837 29.6263 0.661404 29.4413 1.3252L24.5853 18.6795C24.4595 19.1284 24.0515 19.4388 23.5889 19.4388ZM12.1 32.5381L14.6004 23.6031C14.7854 22.9393 14.2896 22.2826 13.6041 22.2826H4.51118C4.04621 22.2826 3.63818 22.593 3.51483 23.0419L1.01446 31.977C0.827053 32.6384 1.32523 33.2974 2.01081 33.2974H11.1037C11.5663 33.2974 11.9743 32.987 12.1 32.5381ZM16.6999 23.0419L11.8438 40.3962C11.6588 41.0577 12.157 41.7143 12.8426 41.7143H30.5301C30.9927 41.7143 31.4008 41.4063 31.5265 40.9574L36.3825 23.6031C36.5676 22.9393 36.0718 22.2826 35.3838 22.2826H17.6986C17.2336 22.2826 16.8256 22.593 16.6999 23.0419ZM29.1851 9.18335L26.6847 18.1184C26.4997 18.7822 26.9955 19.4388 27.6834 19.4388H36.7739C37.2389 19.4388 37.6469 19.1284 37.7727 18.6795L40.273 9.74447C40.4581 9.08067 39.9599 8.42404 39.2743 8.42404H30.1838C29.7188 8.42404 29.3108 8.73445 29.1851 9.18335Z" fill="white"/>
</mask>
<g mask="url(#mask1_88_1570)">
<path d="M0.827049 0.00476837V41.7143H40.4509V0.00476837H0.827049Z" fill="url(#paint0_linear_88_1570)"/>
</g>
</g>
<defs>
<linearGradient id="paint0_linear_88_1570" x1="10.4814" y1="-3.96782" x2="30.9038" y2="45.6453" gradientUnits="userSpaceOnUse">
<stop stop-color="#00FCA8"/>
<stop offset="0.0625" stop-color="#00FCA8"/>
<stop offset="0.09375" stop-color="#00FCA8"/>
<stop offset="0.101562" stop-color="#00FCA9"/>
<stop offset="0.109375" stop-color="#01FBAA"/>
<stop offset="0.117188" stop-color="#01FBAB"/>
<stop offset="0.125" stop-color="#01FBAC"/>
<stop offset="0.132812" stop-color="#01FAAD"/>
<stop offset="0.140625" stop-color="#02FAAD"/>
<stop offset="0.148437" stop-color="#02F9AE"/>
<stop offset="0.15625" stop-color="#02F9AF"/>
<stop offset="0.164062" stop-color="#03F9B0"/>
<stop offset="0.171875" stop-color="#03F8B1"/>
<stop offset="0.179687" stop-color="#03F8B2"/>
<stop offset="0.1875" stop-color="#04F8B3"/>
<stop offset="0.195312" stop-color="#04F7B4"/>
<stop offset="0.203125" stop-color="#04F7B5"/>
<stop offset="0.210937" stop-color="#04F7B6"/>
<stop offset="0.21875" stop-color="#05F6B7"/>
<stop offset="0.226562" stop-color="#05F6B8"/>
<stop offset="0.234375" stop-color="#05F6B8"/>
<stop offset="0.242187" stop-color="#06F5B9"/>
<stop offset="0.25" stop-color="#06F5BA"/>
<stop offset="0.257812" stop-color="#06F4BB"/>
<stop offset="0.265625" stop-color="#06F4BC"/>
<stop offset="0.273438" stop-color="#07F4BD"/>
<stop offset="0.281112" stop-color="#07F3BE"/>
<stop offset="0.28125" stop-color="#07F3BE"/>
<stop offset="0.289062" stop-color="#07F3BF"/>
<stop offset="0.296875" stop-color="#08F3C0"/>
<stop offset="0.304688" stop-color="#08F2C1"/>
<stop offset="0.3125" stop-color="#08F2C2"/>
<stop offset="0.320312" stop-color="#09F2C3"/>
<stop offset="0.328125" stop-color="#09F1C3"/>
<stop offset="0.335938" stop-color="#09F1C4"/>
<stop offset="0.34375" stop-color="#09F1C5"/>
<stop offset="0.351562" stop-color="#0AF0C6"/>
<stop offset="0.359375" stop-color="#0AF0C7"/>
<stop offset="0.367188" stop-color="#0AEFC8"/>
<stop offset="0.375" stop-color="#0BEFC9"/>
<stop offset="0.382812" stop-color="#0BEFCA"/>
<stop offset="0.390625" stop-color="#0BEECB"/>
<stop offset="0.398438" stop-color="#0BEECC"/>
<stop offset="0.40625" stop-color="#0CEECD"/>
<stop offset="0.414062" stop-color="#0CEDCD"/>
<stop offset="0.421875" stop-color="#0CEDCE"/>
<stop offset="0.429688" stop-color="#0DEDCF"/>
<stop offset="0.4375" stop-color="#0DECD0"/>
<stop offset="0.445312" stop-color="#0DECD1"/>
<stop offset="0.453125" stop-color="#0EECD2"/>
<stop offset="0.460938" stop-color="#0EEBD3"/>
<stop offset="0.46875" stop-color="#0EEBD4"/>
<stop offset="0.476562" stop-color="#0EEAD5"/>
<stop offset="0.484375" stop-color="#0FEAD6"/>
<stop offset="0.492188" stop-color="#0FEAD7"/>
<stop offset="0.5" stop-color="#0FE9D8"/>
<stop offset="0.507812" stop-color="#10E9D8"/>
<stop offset="0.515625" stop-color="#10E9D9"/>
<stop offset="0.523438" stop-color="#10E8DA"/>
<stop offset="0.53125" stop-color="#11E8DB"/>
<stop offset="0.539062" stop-color="#11E8DC"/>
<stop offset="0.546875" stop-color="#11E7DD"/>
<stop offset="0.554688" stop-color="#11E7DE"/>
<stop offset="0.5625" stop-color="#12E7DF"/>
<stop offset="0.570312" stop-color="#12E6E0"/>
<stop offset="0.578125" stop-color="#12E6E1"/>
<stop offset="0.585938" stop-color="#13E5E2"/>
<stop offset="0.59375" stop-color="#13E5E3"/>
<stop offset="0.601562" stop-color="#13E5E3"/>
<stop offset="0.609375" stop-color="#13E4E4"/>
<stop offset="0.617188" stop-color="#14E4E5"/>
<stop offset="0.625" stop-color="#14E4E6"/>
<stop offset="0.632812" stop-color="#14E3E7"/>
<stop offset="0.640625" stop-color="#15E3E8"/>
<stop offset="0.648438" stop-color="#15E3E9"/>
<stop offset="0.65625" stop-color="#15E2EA"/>
<stop offset="0.664062" stop-color="#16E2EB"/>
<stop offset="0.671875" stop-color="#16E2EC"/>
<stop offset="0.679688" stop-color="#16E1ED"/>
<stop offset="0.6875" stop-color="#16E1EE"/>
<stop offset="0.695312" stop-color="#17E0EE"/>
<stop offset="0.703125" stop-color="#17E0EF"/>
<stop offset="0.710938" stop-color="#17E0F0"/>
<stop offset="0.71875" stop-color="#18DFF1"/>
<stop offset="0.718888" stop-color="#18DFF2"/>
<stop offset="0.726562" stop-color="#18DFF3"/>
<stop offset="0.734375" stop-color="#18DFF3"/>
<stop offset="0.742188" stop-color="#18DEF4"/>
<stop offset="0.75" stop-color="#19DEF5"/>
<stop offset="0.757812" stop-color="#19DEF6"/>
<stop offset="0.765625" stop-color="#19DDF7"/>
<stop offset="0.773438" stop-color="#1ADDF8"/>
<stop offset="0.78125" stop-color="#1ADDF9"/>
<stop offset="0.789062" stop-color="#1ADCF9"/>
<stop offset="0.796875" stop-color="#1BDCFA"/>
<stop offset="0.804687" stop-color="#1BDBFB"/>
<stop offset="0.8125" stop-color="#1BDBFC"/>
<stop offset="0.820312" stop-color="#1BDBFD"/>
<stop offset="0.828125" stop-color="#1CDAFE"/>
<stop offset="0.84375" stop-color="#1CDAFF"/>
<stop offset="0.875" stop-color="#1CDAFF"/>
<stop offset="1" stop-color="#1CDAFF"/>
</linearGradient>
</defs>
</svg>
