<svg width="35" height="35" viewBox="0 0 35 35" fill="none" xmlns="http://www.w3.org/2000/svg">
<g clip-path="url(#clip0_114_386)">
<path d="M29.4868 8.28576C30.1163 6.54438 28.4289 4.85692 26.6875 5.4879L5.40477 13.1849C3.65756 13.8174 3.44626 16.2014 5.05358 17.1326L11.8471 21.0656L17.9136 14.9992C18.1884 14.7337 18.5565 14.5869 18.9386 14.5902C19.3207 14.5935 19.6861 14.7468 19.9563 15.0169C20.2265 15.2871 20.3798 15.6526 20.3831 16.0347C20.3864 16.4168 20.2395 16.7849 19.9741 17.0597L13.9077 23.1261L17.8422 29.9197C18.7719 31.527 21.1559 31.3142 21.7883 29.5685L29.4868 8.28576Z" fill="white"/>
</g>
<defs>
<clipPath id="clip0_114_386">
<rect width="34.9733" height="34.9733" fill="white"/>
</clipPath>
</defs>
</svg>
