<svg width="26" height="25" viewBox="0 0 26 25" fill="none" xmlns="http://www.w3.org/2000/svg">
<path d="M12.9231 4.16666C14.0281 4.16666 15.0879 4.60565 15.8693 5.38705C16.6507 6.16845 17.0897 7.22826 17.0897 8.33333C17.0897 9.4384 16.6507 10.4982 15.8693 11.2796C15.0879 12.061 14.0281 12.5 12.9231 12.5C11.818 12.5 10.7582 12.061 9.97678 11.2796C9.19537 10.4982 8.75639 9.4384 8.75639 8.33333C8.75639 7.22826 9.19537 6.16845 9.97678 5.38705C10.7582 4.60565 11.818 4.16666 12.9231 4.16666ZM12.9231 14.5833C17.5272 14.5833 21.2564 16.4479 21.2564 18.75V20.8333H4.58972V18.75C4.58972 16.4479 8.31889 14.5833 12.9231 14.5833Z" fill="#181818"/>
</svg>
