<svg width="30" height="30" viewBox="0 0 30 30" fill="none" xmlns="http://www.w3.org/2000/svg">
<path fill-rule="evenodd" clip-rule="evenodd" d="M30 15C30 23.2874 23.2874 30 15 30C6.7126 30 0 23.2874 0 15C0 6.7126 6.7126 0 15 0C23.2874 0 30 6.7126 30 15Z" fill="#2A4591"/>
<path fill-rule="evenodd" clip-rule="evenodd" d="M15 16.1538C11.8149 16.1538 9.23064 13.5699 9.23064 10.3845C9.23064 7.19944 11.8149 4.61553 15 4.61553C18.185 4.61553 20.7693 7.19944 20.7693 10.3845C20.7693 13.5699 18.185 16.1538 15 16.1538ZM4.14673 21.5806C4.15866 21.4782 4.20062 21.3824 4.26681 21.2981C5.69114 19.5193 7.93868 18.4614 10.9613 18.4614H19.0386C22.0612 18.4614 24.3088 19.5193 25.7331 21.2981C25.7993 21.3824 25.8412 21.4782 25.8532 21.5806C23.6299 25.2463 19.6032 27.6924 15 27.6924C10.3967 27.6924 6.37004 25.2463 4.14673 21.5806Z" fill="white"/>
</svg>
