<svg width="186" height="42" viewBox="0 0 186 42" fill="none" xmlns="http://www.w3.org/2000/svg">
<path d="M47.0597 26.9357C46.7038 26.9357 46.4002 26.8116 46.1487 26.5632C45.8949 26.3101 45.7692 26.0045 45.7692 25.6463V13.4592C45.7692 13.1989 45.8569 12.9768 46.0349 12.7906C46.2104 12.6067 46.4287 12.5136 46.6896 12.5136C46.9482 12.5136 47.1688 12.6067 47.3538 12.7906C47.5365 12.9768 47.629 13.1989 47.629 13.4592V25.0733H54.2903C54.5489 25.0733 54.7695 25.1664 54.9546 25.3502C55.1372 25.5365 55.2297 25.7562 55.2297 26.0093C55.2297 26.2719 55.1372 26.4916 54.9546 26.6683C54.7695 26.8474 54.5489 26.9357 54.2903 26.9357H47.0597Z" fill="white"/>
<path d="M57.4673 27.0408C57.1945 27.0408 56.9739 26.9501 56.8031 26.7734C56.6323 26.5967 56.5469 26.377 56.5469 26.1143C56.5469 26.0069 56.5801 25.8708 56.6513 25.7036L61.8513 13.3541C61.958 13.1058 62.1098 12.9052 62.3067 12.7524C62.5013 12.5948 62.7432 12.5136 63.0279 12.5136H63.2367C63.5213 12.5136 63.7609 12.5948 63.9578 12.7524C64.1523 12.9052 64.3089 13.1058 64.4228 13.3541L69.6133 25.7036C69.6821 25.8708 69.7177 26.0069 69.7177 26.1143C69.7177 26.377 69.6323 26.5967 69.4615 26.7734C69.2907 26.9501 69.0677 27.0408 68.7972 27.0408C68.6075 27.0408 68.4319 26.9883 68.2753 26.888C68.1235 26.7877 68.0049 26.6468 67.9242 26.4677L66.5958 23.2681H59.6688L58.3403 26.4677C58.2644 26.6468 58.1458 26.7877 57.9892 26.888C57.8303 26.9883 57.6571 27.0408 57.4673 27.0408ZM60.3805 21.5585H65.8841L63.1323 14.8918L60.3805 21.5585Z" fill="white"/>
<path d="M73.6255 27.0409C73.3646 27.0409 73.1463 26.9502 72.9708 26.7735C72.7929 26.5968 72.7051 26.3771 72.7051 26.1145V13.5644C72.7051 13.3041 72.7929 13.0821 72.9708 12.8958C73.1463 12.712 73.3646 12.6188 73.6255 12.6188H78.2752C79.5657 12.6188 80.6189 12.8385 81.435 13.2779C82.2511 13.7124 82.8323 14.2712 83.181 14.9588C83.5345 15.6417 83.7124 16.3796 83.7124 17.1747C83.7124 17.965 83.5345 18.7029 83.181 19.3905C82.8323 20.0734 82.2511 20.6322 81.435 21.0715C80.6189 21.5061 79.5657 21.721 78.2752 21.721H74.5649V26.1145C74.5649 26.3771 74.4724 26.5968 74.2897 26.7735C74.1047 26.9502 73.8841 27.0409 73.6255 27.0409ZM78.0854 19.9636C79.4755 19.9636 80.4529 19.6962 81.0175 19.1613C81.5797 18.6265 81.862 17.965 81.862 17.1747C81.862 16.3796 81.5797 15.7134 81.0175 15.1785C80.4529 14.6437 79.4755 14.3762 78.0854 14.3762H74.5649V19.9636H78.0854Z" fill="white"/>
<path d="M90.62 27.0409C90.359 27.0409 90.1408 26.9502 89.9652 26.7735C89.7873 26.5968 89.6995 26.3771 89.6995 26.1145V14.3571H85.5433C85.2966 14.3571 85.0902 14.2783 84.9266 14.1183C84.7676 13.9536 84.6893 13.7459 84.6893 13.4975C84.6893 13.2492 84.7676 13.0439 84.9266 12.8767C85.0902 12.7048 85.2966 12.6188 85.5433 12.6188H95.6966C95.9433 12.6188 96.1474 12.7048 96.3134 12.8767C96.4842 13.0439 96.5696 13.2492 96.5696 13.4975C96.5696 13.7459 96.4842 13.9536 96.3134 14.1183C96.1474 14.2783 95.9433 14.3571 95.6966 14.3571H91.5594V26.1145C91.5594 26.3771 91.4669 26.5968 91.2842 26.7735C91.0992 26.9502 90.8786 27.0409 90.62 27.0409Z" fill="white"/>
<path d="M105.107 27.1364C103.683 27.1364 102.433 26.826 101.358 26.2004C100.281 25.57 99.4512 24.7009 98.8629 23.5929C98.2793 22.485 97.9756 21.2123 97.9519 19.7725C97.9756 18.3398 98.2793 17.0696 98.8629 15.9616C99.4512 14.8537 100.281 13.9846 101.358 13.3542C102.433 12.7238 103.683 12.4086 105.107 12.4086C106.535 12.4086 107.783 12.7238 108.845 13.3542C109.913 13.9846 110.743 14.8585 111.331 15.9712C111.925 17.0863 112.235 18.3542 112.261 19.7725C112.235 21.2004 111.925 22.4707 111.331 23.5834C110.743 24.6985 109.913 25.57 108.845 26.2004C107.783 26.826 106.535 27.1364 105.107 27.1364ZM105.107 25.3981C106.193 25.3981 107.137 25.1545 107.934 24.6627C108.736 24.166 109.351 23.495 109.775 22.6474C110.198 21.8021 110.411 20.8422 110.411 19.7725C110.411 18.7099 110.198 17.7548 109.775 16.9072C109.351 16.0548 108.736 15.3838 107.934 14.8919C107.137 14.4024 106.193 14.1565 105.107 14.1565C104.006 14.1565 103.057 14.4024 102.26 14.8919C101.468 15.3838 100.86 16.0548 100.438 16.9072C100.021 17.7548 99.8118 18.7099 99.8118 19.7725C99.8118 20.8422 100.021 21.8021 100.438 22.6474C100.86 23.495 101.468 24.166 102.26 24.6627C103.057 25.1545 104.006 25.3981 105.107 25.3981Z" fill="white"/>
<path d="M116.271 27.0409C116.01 27.0409 115.792 26.9502 115.616 26.7735C115.438 26.5968 115.35 26.3771 115.35 26.1145V13.5644C115.35 13.3041 115.438 13.0821 115.616 12.8958C115.792 12.712 116.01 12.6188 116.271 12.6188H120.92C122.211 12.6188 123.264 12.8385 124.08 13.2779C124.896 13.7124 125.478 14.2712 125.826 14.9588C126.18 15.6417 126.358 16.3796 126.358 17.1747C126.358 17.965 126.18 18.7029 125.826 19.3905C125.478 20.0734 124.896 20.6322 124.08 21.0715C123.264 21.5061 122.211 21.721 120.92 21.721H117.21V26.1145C117.21 26.3771 117.118 26.5968 116.935 26.7735C116.75 26.9502 116.529 27.0409 116.271 27.0409ZM120.731 19.9636C122.121 19.9636 123.098 19.6962 123.663 19.1613C124.225 18.6265 124.507 17.965 124.507 17.1747C124.507 16.3796 124.225 15.7134 123.663 15.1785C123.098 14.6437 122.121 14.3762 120.731 14.3762H117.21V19.9636H120.731Z" fill="white"/>
<path d="M129.963 27.0408C129.702 27.0408 129.484 26.9501 129.308 26.7734C129.13 26.5967 129.043 26.377 129.043 26.1143V13.8699C129.043 13.5021 129.171 13.1822 129.432 12.9148C129.69 12.6473 130.003 12.5136 130.371 12.5136H131.045C131.315 12.5136 131.562 12.5972 131.785 12.7619C132.013 12.9291 132.179 13.132 132.288 13.3732L136.909 24.9873L141.54 13.3732C141.646 13.132 141.81 12.9291 142.033 12.7619C142.261 12.5972 142.51 12.5136 142.783 12.5136H143.457C143.822 12.5136 144.135 12.6473 144.396 12.9148C144.655 13.1822 144.785 13.5021 144.785 13.8699V26.1143C144.785 26.377 144.695 26.5967 144.519 26.7734C144.341 26.9501 144.123 27.0408 143.865 27.0408C143.604 27.0408 143.383 26.9501 143.2 26.7734C143.015 26.5967 142.925 26.377 142.925 26.1143V14.462L138.219 26.1812C138.109 26.4367 137.936 26.6444 137.697 26.802C137.462 26.9596 137.199 27.0408 136.909 27.0408C136.624 27.0408 136.361 26.9596 136.121 26.802C135.887 26.6444 135.716 26.4367 135.609 26.1812L130.903 14.462V26.1143C130.903 26.377 130.81 26.5967 130.627 26.7734C130.442 26.9501 130.222 27.0408 129.963 27.0408Z" fill="white"/>
<path d="M148.687 27.0408C148.414 27.0408 148.194 26.9501 148.023 26.7734C147.852 26.5967 147.767 26.377 147.767 26.1143C147.767 26.0069 147.8 25.8708 147.871 25.7036L153.071 13.3541C153.178 13.1058 153.33 12.9052 153.527 12.7524C153.721 12.5948 153.963 12.5136 154.248 12.5136H154.457C154.741 12.5136 154.981 12.5948 155.178 12.7524C155.372 12.9052 155.529 13.1058 155.643 13.3541L160.833 25.7036C160.902 25.8708 160.938 26.0069 160.938 26.1143C160.938 26.377 160.852 26.5967 160.681 26.7734C160.511 26.9501 160.288 27.0408 160.017 27.0408C159.827 27.0408 159.652 26.9883 159.495 26.888C159.343 26.7877 159.225 26.6468 159.144 26.4677L157.816 23.2681H150.889L149.56 26.4677C149.484 26.6468 149.366 26.7877 149.209 26.888C149.05 26.9883 148.877 27.0408 148.687 27.0408ZM151.6 21.5585H157.104L154.352 14.8918L151.6 21.5585Z" fill="white"/>
<path d="M165.215 26.9357C164.86 26.9357 164.556 26.8116 164.304 26.5632C164.051 26.3101 163.925 26.0045 163.925 25.6463V13.4592C163.925 13.1989 164.013 12.9768 164.191 12.7906C164.366 12.6067 164.584 12.5136 164.845 12.5136C165.104 12.5136 165.325 12.6067 165.51 12.7906C165.692 12.9768 165.785 13.1989 165.785 13.4592V25.0733H172.446C172.705 25.0733 172.925 25.1664 173.11 25.3502C173.293 25.5365 173.386 25.7562 173.386 26.0093C173.386 26.2719 173.293 26.4916 173.11 26.6683C172.925 26.8474 172.705 26.9357 172.446 26.9357H165.215Z" fill="white"/>
<path d="M176.952 26.9357C176.596 26.9357 176.292 26.8116 176.041 26.5632C175.787 26.3101 175.661 26.0045 175.661 25.6463V13.4592C175.661 13.1989 175.749 12.9768 175.927 12.7906C176.102 12.6067 176.321 12.5136 176.582 12.5136C176.84 12.5136 177.061 12.6067 177.246 12.7906C177.429 12.9768 177.521 13.1989 177.521 13.4592V25.0733H184.182C184.441 25.0733 184.662 25.1664 184.847 25.3502C185.029 25.5365 185.122 25.7562 185.122 26.0093C185.122 26.2719 185.029 26.4916 184.847 26.6683C184.662 26.8474 184.441 26.9357 184.182 26.9357H176.952Z" fill="white"/>
<mask id="mask0_206_427" style="mask-type:luminance" maskUnits="userSpaceOnUse" x="0" y="0" width="40" height="42">
<path d="M0 0H39.6263V41.7191H0V0Z" fill="white"/>
</mask>
<g mask="url(#mask0_206_427)">
<mask id="mask1_206_427" style="mask-type:luminance" maskUnits="userSpaceOnUse" x="0" y="0" width="40" height="42">
<path d="M22.7642 19.4388H5.07662C4.39104 19.4388 3.89286 18.7822 4.0779 18.1184L8.93392 0.764078C9.05965 0.315178 9.46768 0.00476837 9.93264 0.00476837H27.6179C28.3058 0.00476837 28.8016 0.661404 28.6166 1.3252L23.7606 18.6795C23.6348 19.1284 23.2268 19.4388 22.7642 19.4388ZM11.2753 32.5381L13.7757 23.6031C13.9607 22.9393 13.4649 22.2826 12.7794 22.2826H3.68648C3.22151 22.2826 2.81348 22.593 2.69013 23.0419L0.189763 31.977C0.00235398 32.6384 0.500529 33.2974 1.18611 33.2974H10.279C10.7416 33.2974 11.1496 32.987 11.2753 32.5381ZM15.8752 23.0419L11.0191 40.3962C10.8341 41.0577 11.3323 41.7143 12.0179 41.7143H29.7054C30.168 41.7143 30.5761 41.4063 30.7018 40.9574L35.5578 23.6031C35.7429 22.9393 35.2471 22.2826 34.5591 22.2826H16.8739C16.4089 22.2826 16.0009 22.593 15.8752 23.0419ZM28.3604 9.18335L25.86 18.1184C25.675 18.7822 26.1708 19.4388 26.8587 19.4388H35.9492C36.4142 19.4388 36.8222 19.1284 36.948 18.6795L39.4483 9.74447C39.6334 9.08067 39.1352 8.42404 38.4496 8.42404H29.3591C28.8941 8.42404 28.4861 8.73445 28.3604 9.18335Z" fill="white"/>
</mask>
<g mask="url(#mask1_206_427)">
<path d="M0.00238037 0.00476837V41.7143H39.6263V0.00476837H0.00238037Z" fill="url(#paint0_linear_206_427)"/>
</g>
</g>
<defs>
<linearGradient id="paint0_linear_206_427" x1="9.65677" y1="-3.96782" x2="30.0791" y2="45.6453" gradientUnits="userSpaceOnUse">
<stop stop-color="#00FCA8"/>
<stop offset="0.0625" stop-color="#00FCA8"/>
<stop offset="0.09375" stop-color="#00FCA8"/>
<stop offset="0.101562" stop-color="#00FCA9"/>
<stop offset="0.109375" stop-color="#01FBAA"/>
<stop offset="0.117188" stop-color="#01FBAB"/>
<stop offset="0.125" stop-color="#01FBAC"/>
<stop offset="0.132812" stop-color="#01FAAD"/>
<stop offset="0.140625" stop-color="#02FAAD"/>
<stop offset="0.148437" stop-color="#02F9AE"/>
<stop offset="0.15625" stop-color="#02F9AF"/>
<stop offset="0.164062" stop-color="#03F9B0"/>
<stop offset="0.171875" stop-color="#03F8B1"/>
<stop offset="0.179687" stop-color="#03F8B2"/>
<stop offset="0.1875" stop-color="#04F8B3"/>
<stop offset="0.195312" stop-color="#04F7B4"/>
<stop offset="0.203125" stop-color="#04F7B5"/>
<stop offset="0.210937" stop-color="#04F7B6"/>
<stop offset="0.21875" stop-color="#05F6B7"/>
<stop offset="0.226562" stop-color="#05F6B8"/>
<stop offset="0.234375" stop-color="#05F6B8"/>
<stop offset="0.242187" stop-color="#06F5B9"/>
<stop offset="0.25" stop-color="#06F5BA"/>
<stop offset="0.257812" stop-color="#06F4BB"/>
<stop offset="0.265625" stop-color="#06F4BC"/>
<stop offset="0.273438" stop-color="#07F4BD"/>
<stop offset="0.281112" stop-color="#07F3BE"/>
<stop offset="0.28125" stop-color="#07F3BE"/>
<stop offset="0.289062" stop-color="#07F3BF"/>
<stop offset="0.296875" stop-color="#08F3C0"/>
<stop offset="0.304688" stop-color="#08F2C1"/>
<stop offset="0.3125" stop-color="#08F2C2"/>
<stop offset="0.320312" stop-color="#09F2C3"/>
<stop offset="0.328125" stop-color="#09F1C3"/>
<stop offset="0.335938" stop-color="#09F1C4"/>
<stop offset="0.34375" stop-color="#09F1C5"/>
<stop offset="0.351562" stop-color="#0AF0C6"/>
<stop offset="0.359375" stop-color="#0AF0C7"/>
<stop offset="0.367188" stop-color="#0AEFC8"/>
<stop offset="0.375" stop-color="#0BEFC9"/>
<stop offset="0.382812" stop-color="#0BEFCA"/>
<stop offset="0.390625" stop-color="#0BEECB"/>
<stop offset="0.398438" stop-color="#0BEECC"/>
<stop offset="0.40625" stop-color="#0CEECD"/>
<stop offset="0.414062" stop-color="#0CEDCD"/>
<stop offset="0.421875" stop-color="#0CEDCE"/>
<stop offset="0.429688" stop-color="#0DEDCF"/>
<stop offset="0.4375" stop-color="#0DECD0"/>
<stop offset="0.445312" stop-color="#0DECD1"/>
<stop offset="0.453125" stop-color="#0EECD2"/>
<stop offset="0.460938" stop-color="#0EEBD3"/>
<stop offset="0.46875" stop-color="#0EEBD4"/>
<stop offset="0.476562" stop-color="#0EEAD5"/>
<stop offset="0.484375" stop-color="#0FEAD6"/>
<stop offset="0.492188" stop-color="#0FEAD7"/>
<stop offset="0.5" stop-color="#0FE9D8"/>
<stop offset="0.507812" stop-color="#10E9D8"/>
<stop offset="0.515625" stop-color="#10E9D9"/>
<stop offset="0.523438" stop-color="#10E8DA"/>
<stop offset="0.53125" stop-color="#11E8DB"/>
<stop offset="0.539062" stop-color="#11E8DC"/>
<stop offset="0.546875" stop-color="#11E7DD"/>
<stop offset="0.554688" stop-color="#11E7DE"/>
<stop offset="0.5625" stop-color="#12E7DF"/>
<stop offset="0.570312" stop-color="#12E6E0"/>
<stop offset="0.578125" stop-color="#12E6E1"/>
<stop offset="0.585938" stop-color="#13E5E2"/>
<stop offset="0.59375" stop-color="#13E5E3"/>
<stop offset="0.601562" stop-color="#13E5E3"/>
<stop offset="0.609375" stop-color="#13E4E4"/>
<stop offset="0.617188" stop-color="#14E4E5"/>
<stop offset="0.625" stop-color="#14E4E6"/>
<stop offset="0.632812" stop-color="#14E3E7"/>
<stop offset="0.640625" stop-color="#15E3E8"/>
<stop offset="0.648438" stop-color="#15E3E9"/>
<stop offset="0.65625" stop-color="#15E2EA"/>
<stop offset="0.664062" stop-color="#16E2EB"/>
<stop offset="0.671875" stop-color="#16E2EC"/>
<stop offset="0.679688" stop-color="#16E1ED"/>
<stop offset="0.6875" stop-color="#16E1EE"/>
<stop offset="0.695312" stop-color="#17E0EE"/>
<stop offset="0.703125" stop-color="#17E0EF"/>
<stop offset="0.710938" stop-color="#17E0F0"/>
<stop offset="0.71875" stop-color="#18DFF1"/>
<stop offset="0.718888" stop-color="#18DFF2"/>
<stop offset="0.726562" stop-color="#18DFF3"/>
<stop offset="0.734375" stop-color="#18DFF3"/>
<stop offset="0.742188" stop-color="#18DEF4"/>
<stop offset="0.75" stop-color="#19DEF5"/>
<stop offset="0.757812" stop-color="#19DEF6"/>
<stop offset="0.765625" stop-color="#19DDF7"/>
<stop offset="0.773438" stop-color="#1ADDF8"/>
<stop offset="0.78125" stop-color="#1ADDF9"/>
<stop offset="0.789062" stop-color="#1ADCF9"/>
<stop offset="0.796875" stop-color="#1BDCFA"/>
<stop offset="0.804687" stop-color="#1BDBFB"/>
<stop offset="0.8125" stop-color="#1BDBFC"/>
<stop offset="0.820312" stop-color="#1BDBFD"/>
<stop offset="0.828125" stop-color="#1CDAFE"/>
<stop offset="0.84375" stop-color="#1CDAFF"/>
<stop offset="0.875" stop-color="#1CDAFF"/>
<stop offset="1" stop-color="#1CDAFF"/>
</linearGradient>
</defs>
</svg>
